<svg xmlns="http://www.w3.org/2000/svg" xmlns:xlink="http://www.w3.org/1999/xlink" contentStyleType="text/css" data-diagram-type="CLASS" height="1034px" preserveAspectRatio="none" style="width:1041px;height:1034px;background:#FFFFFF;" version="1.1" viewBox="0 0 1041 1034" width="1041px" zoomAndPan="magnify"><defs/><g><!--class User--><g class="entity" data-entity="User" data-source-line="10" data-uid="ent0002" id="entity_User"><rect fill="#FFFFFF" height="227.2656" rx="2.5" ry="2.5" style="stroke:#000000;stroke-width:0.5;" width="205.7441" x="272.5" y="7"/><ellipse cx="355.167" cy="23" fill="#ADD1B2" rx="11" ry="11" style="stroke:#181818;stroke-width:1;"/><path d="M358.1357,28.6406 Q357.5576,28.9375 356.917,29.0781 Q356.2764,29.2344 355.5732,29.2344 Q353.0732,29.2344 351.7451,27.5938 Q350.4326,25.9375 350.4326,22.8125 Q350.4326,19.6875 351.7451,18.0313 Q353.0732,16.375 355.5732,16.375 Q356.2764,16.375 356.917,16.5313 Q357.5732,16.6875 358.1357,16.9844 L358.1357,19.7031 Q357.5107,19.125 356.917,18.8594 Q356.3232,18.5781 355.6982,18.5781 Q354.3545,18.5781 353.667,19.6563 Q352.9795,20.7188 352.9795,22.8125 Q352.9795,24.9063 353.667,25.9844 Q354.3545,27.0469 355.6982,27.0469 Q356.3232,27.0469 356.917,26.7813 Q357.5107,26.5 358.1357,25.9219 L358.1357,28.6406 Z " fill="#000000"/><text fill="#000000" font-family="sans-serif" font-size="14" lengthAdjust="spacing" textLength="31.9102" x="375.667" y="27.8467">User</text><line style="stroke:#000000;stroke-width:0.5;" x1="273.5" x2="477.2441" y1="39" y2="39"/><text fill="#000000" font-family="sans-serif" font-size="14" lengthAdjust="spacing" textLength="56.8271" x="278.5" y="55.9951">+id: INT</text><text fill="#000000" font-family="sans-serif" font-size="14" lengthAdjust="spacing" textLength="188.3643" x="278.5" y="72.292">+username: VARCHAR(50)</text><text fill="#000000" font-family="sans-serif" font-size="14" lengthAdjust="spacing" textLength="165.6416" x="278.5" y="88.5889">+email: VARCHAR(100)</text><text fill="#000000" font-family="sans-serif" font-size="14" lengthAdjust="spacing" textLength="193.7441" x="278.5" y="104.8857">+password: VARCHAR(255)</text><text fill="#000000" font-family="sans-serif" font-size="14" lengthAdjust="spacing" textLength="172.2998" x="278.5" y="121.1826">+avatar: VARCHAR(500)</text><text fill="#000000" font-family="sans-serif" font-size="14" lengthAdjust="spacing" textLength="176.7432" x="278.5" y="137.4795">+created_at: TIMESTAMP</text><text fill="#000000" font-family="sans-serif" font-size="14" lengthAdjust="spacing" textLength="181.3232" x="278.5" y="153.7764">+updated_at: TIMESTAMP</text><line style="stroke:#000000;stroke-width:0.5;" x1="273.5" x2="477.2441" y1="161.0781" y2="161.0781"/><text fill="#000000" font-family="sans-serif" font-size="14" lengthAdjust="spacing" textLength="76.9521" x="278.5" y="178.0732">+register()</text><text fill="#000000" font-family="sans-serif" font-size="14" lengthAdjust="spacing" textLength="56.7588" x="278.5" y="194.3701">+login()</text><text fill="#000000" font-family="sans-serif" font-size="14" lengthAdjust="spacing" textLength="89.7285" x="278.5" y="210.667">+getProfile()</text><text fill="#000000" font-family="sans-serif" font-size="14" lengthAdjust="spacing" textLength="128.7891" x="278.5" y="226.9639">+generateToken()</text></g><!--class Event--><g class="entity" data-entity="Event" data-source-line="25" data-uid="ent0003" id="entity_Event"><rect fill="#FFFFFF" height="406.5313" rx="2.5" ry="2.5" style="stroke:#000000;stroke-width:0.5;" width="194.5811" x="7" y="346"/><ellipse cx="79.9873" cy="362" fill="#ADD1B2" rx="11" ry="11" style="stroke:#181818;stroke-width:1;"/><path d="M82.9561,367.6406 Q82.3779,367.9375 81.7373,368.0781 Q81.0967,368.2344 80.3936,368.2344 Q77.8936,368.2344 76.5654,366.5938 Q75.2529,364.9375 75.2529,361.8125 Q75.2529,358.6875 76.5654,357.0313 Q77.8936,355.375 80.3936,355.375 Q81.0967,355.375 81.7373,355.5313 Q82.3936,355.6875 82.9561,355.9844 L82.9561,358.7031 Q82.3311,358.125 81.7373,357.8594 Q81.1436,357.5781 80.5186,357.5781 Q79.1748,357.5781 78.4873,358.6563 Q77.7998,359.7188 77.7998,361.8125 Q77.7998,363.9063 78.4873,364.9844 Q79.1748,366.0469 80.5186,366.0469 Q81.1436,366.0469 81.7373,365.7813 Q82.3311,365.5 82.9561,364.9219 L82.9561,367.6406 Z " fill="#000000"/><text fill="#000000" font-family="sans-serif" font-size="14" lengthAdjust="spacing" textLength="40.1064" x="100.4873" y="366.8467">Event</text><line style="stroke:#000000;stroke-width:0.5;" x1="8" x2="200.5811" y1="378" y2="378"/><text fill="#000000" font-family="sans-serif" font-size="14" lengthAdjust="spacing" textLength="56.8271" x="13" y="394.9951">+id: INT</text><text fill="#000000" font-family="sans-serif" font-size="14" lengthAdjust="spacing" textLength="166.7354" x="13" y="411.292">+name: VARCHAR(200)</text><text fill="#000000" font-family="sans-serif" font-size="14" lengthAdjust="spacing" textLength="93.8164" x="13" y="427.5889">+type: ENUM</text><text fill="#000000" font-family="sans-serif" font-size="14" lengthAdjust="spacing" textLength="134.2783" x="13" y="443.8857">+description: TEXT</text><text fill="#000000" font-family="sans-serif" font-size="14" lengthAdjust="spacing" textLength="90.2207" x="13" y="460.1826">+date: DATE</text><text fill="#000000" font-family="sans-serif" font-size="14" lengthAdjust="spacing" textLength="123.5938" x="13" y="476.4795">+end_date: DATE</text><text fill="#000000" font-family="sans-serif" font-size="14" lengthAdjust="spacing" textLength="182.5811" x="13" y="492.7764">+location: VARCHAR(200)</text><text fill="#000000" font-family="sans-serif" font-size="14" lengthAdjust="spacing" textLength="103.1543" x="13" y="509.0732">+capacity: INT</text><text fill="#000000" font-family="sans-serif" font-size="14" lengthAdjust="spacing" textLength="118.7266" x="13" y="525.3701">+price: DECIMAL</text><text fill="#000000" font-family="sans-serif" font-size="14" lengthAdjust="spacing" textLength="105.5605" x="13" y="541.667">+status: ENUM</text><text fill="#000000" font-family="sans-serif" font-size="14" lengthAdjust="spacing" textLength="140.1846" x="13" y="557.9639">+image: LONGTEXT</text><text fill="#000000" font-family="sans-serif" font-size="14" lengthAdjust="spacing" textLength="114.2832" x="13" y="574.2607">+creator_id: INT</text><text fill="#000000" font-family="sans-serif" font-size="14" lengthAdjust="spacing" textLength="176.7432" x="13" y="590.5576">+created_at: TIMESTAMP</text><text fill="#000000" font-family="sans-serif" font-size="14" lengthAdjust="spacing" textLength="181.3232" x="13" y="606.8545">+updated_at: TIMESTAMP</text><line style="stroke:#000000;stroke-width:0.5;" x1="8" x2="200.5811" y1="614.1563" y2="614.1563"/><text fill="#000000" font-family="sans-serif" font-size="14" lengthAdjust="spacing" textLength="63" x="13" y="631.1514">+getAll()</text><text fill="#000000" font-family="sans-serif" font-size="14" lengthAdjust="spacing" textLength="76.5488" x="13" y="647.4482">+getById()</text><text fill="#000000" font-family="sans-serif" font-size="14" lengthAdjust="spacing" textLength="67.4023" x="13" y="663.7451">+create()</text><text fill="#000000" font-family="sans-serif" font-size="14" lengthAdjust="spacing" textLength="71.9824" x="13" y="680.042">+update()</text><text fill="#000000" font-family="sans-serif" font-size="14" lengthAdjust="spacing" textLength="66.7598" x="13" y="696.3389">+delete()</text><text fill="#000000" font-family="sans-serif" font-size="14" lengthAdjust="spacing" textLength="69.4668" x="13" y="712.6357">+search()</text><text fill="#000000" font-family="sans-serif" font-size="14" lengthAdjust="spacing" textLength="107.4473" x="13" y="728.9326">+filterByType()</text><text fill="#000000" font-family="sans-serif" font-size="14" lengthAdjust="spacing" textLength="117.7217" x="13" y="745.2295">+filterByStatus()</text></g><!--class Favorite--><g class="entity" data-entity="Favorite" data-source-line="51" data-uid="ent0004" id="entity_Favorite"><rect fill="#FFFFFF" height="162.0781" rx="2.5" ry="2.5" style="stroke:#000000;stroke-width:0.5;" width="188.7432" x="277" y="865"/><ellipse cx="338.5063" cy="881" fill="#ADD1B2" rx="11" ry="11" style="stroke:#181818;stroke-width:1;"/><path d="M341.4751,886.6406 Q340.897,886.9375 340.2563,887.0781 Q339.6157,887.2344 338.9126,887.2344 Q336.4126,887.2344 335.0845,885.5938 Q333.772,883.9375 333.772,880.8125 Q333.772,877.6875 335.0845,876.0313 Q336.4126,874.375 338.9126,874.375 Q339.6157,874.375 340.2563,874.5313 Q340.9126,874.6875 341.4751,874.9844 L341.4751,877.7031 Q340.8501,877.125 340.2563,876.8594 Q339.6626,876.5781 339.0376,876.5781 Q337.6938,876.5781 337.0063,877.6563 Q336.3188,878.7188 336.3188,880.8125 Q336.3188,882.9063 337.0063,883.9844 Q337.6938,885.0469 339.0376,885.0469 Q339.6626,885.0469 340.2563,884.7813 Q340.8501,884.5 341.4751,883.9219 L341.4751,886.6406 Z " fill="#000000"/><text fill="#000000" font-family="sans-serif" font-size="14" lengthAdjust="spacing" textLength="57.2305" x="359.0063" y="885.8467">Favorite</text><line style="stroke:#000000;stroke-width:0.5;" x1="278" x2="464.7432" y1="897" y2="897"/><text fill="#000000" font-family="sans-serif" font-size="14" lengthAdjust="spacing" textLength="56.8271" x="283" y="913.9951">+id: INT</text><text fill="#000000" font-family="sans-serif" font-size="14" lengthAdjust="spacing" textLength="94.3633" x="283" y="930.292">+user_id: INT</text><text fill="#000000" font-family="sans-serif" font-size="14" lengthAdjust="spacing" textLength="103.7012" x="283" y="946.5889">+event_id: INT</text><text fill="#000000" font-family="sans-serif" font-size="14" lengthAdjust="spacing" textLength="176.7432" x="283" y="962.8857">+created_at: TIMESTAMP</text><line style="stroke:#000000;stroke-width:0.5;" x1="278" x2="464.7432" y1="970.1875" y2="970.1875"/><text fill="#000000" font-family="sans-serif" font-size="14" lengthAdjust="spacing" textLength="106.2373" x="283" y="987.1826">+addFavorite()</text><text fill="#000000" font-family="sans-serif" font-size="14" lengthAdjust="spacing" textLength="133.3555" x="283" y="1003.4795">+removeFavorite()</text><text fill="#000000" font-family="sans-serif" font-size="14" lengthAdjust="spacing" textLength="130.5322" x="283" y="1019.7764">+getMyFavorites()</text></g><!--class ScrapedVenue--><g class="entity" data-entity="ScrapedVenue" data-source-line="62" data-uid="ent0005" id="entity_ScrapedVenue"><rect fill="#FFFFFF" height="227.2656" rx="2.5" ry="2.5" style="stroke:#000000;stroke-width:0.5;" width="198.6963" x="514" y="7"/><ellipse cx="558.1784" cy="23" fill="#ADD1B2" rx="11" ry="11" style="stroke:#181818;stroke-width:1;"/><path d="M561.1471,28.6406 Q560.569,28.9375 559.9284,29.0781 Q559.2877,29.2344 558.5846,29.2344 Q556.0846,29.2344 554.7565,27.5938 Q553.444,25.9375 553.444,22.8125 Q553.444,19.6875 554.7565,18.0313 Q556.0846,16.375 558.5846,16.375 Q559.2877,16.375 559.9284,16.5313 Q560.5846,16.6875 561.1471,16.9844 L561.1471,19.7031 Q560.5221,19.125 559.9284,18.8594 Q559.3346,18.5781 558.7096,18.5781 Q557.3659,18.5781 556.6784,19.6563 Q555.9909,20.7188 555.9909,22.8125 Q555.9909,24.9063 556.6784,25.9844 Q557.3659,27.0469 558.7096,27.0469 Q559.3346,27.0469 559.9284,26.7813 Q560.5221,26.5 561.1471,25.9219 L561.1471,28.6406 Z " fill="#000000"/><text fill="#000000" font-family="sans-serif" font-size="14" lengthAdjust="spacing" textLength="101.8555" x="578.6625" y="27.8467">ScrapedVenue</text><line style="stroke:#000000;stroke-width:0.5;" x1="515" x2="711.6963" y1="39" y2="39"/><text fill="#000000" font-family="sans-serif" font-size="14" lengthAdjust="spacing" textLength="56.8271" x="520" y="55.9951">+id: INT</text><text fill="#000000" font-family="sans-serif" font-size="14" lengthAdjust="spacing" textLength="166.7354" x="520" y="72.292">+name: VARCHAR(200)</text><text fill="#000000" font-family="sans-serif" font-size="14" lengthAdjust="spacing" textLength="182.3418" x="520" y="88.5889">+address: VARCHAR(300)</text><text fill="#000000" font-family="sans-serif" font-size="14" lengthAdjust="spacing" textLength="161.9365" x="520" y="104.8857">+phone: VARCHAR(50)</text><text fill="#000000" font-family="sans-serif" font-size="14" lengthAdjust="spacing" textLength="125.3574" x="520" y="121.1826">+rating: DECIMAL</text><text fill="#000000" font-family="sans-serif" font-size="14" lengthAdjust="spacing" textLength="181.2686" x="520" y="137.4795">+website: VARCHAR(300)</text><text fill="#000000" font-family="sans-serif" font-size="14" lengthAdjust="spacing" textLength="152.3936" x="520" y="153.7764">+city: VARCHAR(100)</text><text fill="#000000" font-family="sans-serif" font-size="14" lengthAdjust="spacing" textLength="186.6963" x="520" y="170.0732">+keyword: VARCHAR(100)</text><text fill="#000000" font-family="sans-serif" font-size="14" lengthAdjust="spacing" textLength="178.8213" x="520" y="186.3701">+scraped_at: TIMESTAMP</text><line style="stroke:#000000;stroke-width:0.5;" x1="515" x2="711.6963" y1="193.6719" y2="193.6719"/><text fill="#000000" font-family="sans-serif" font-size="14" lengthAdjust="spacing" textLength="131.3867" x="520" y="210.667">+triggerScraping()</text><text fill="#000000" font-family="sans-serif" font-size="14" lengthAdjust="spacing" textLength="133.1367" x="520" y="226.9639">+exportToSheets()</text></g><g class="entity" data-entity="GMN9" data-source-line="90" data-uid="ent0010" id="entity_GMN9"><path d="M237,529.5 L237,545.5 L202.03,549.5 L237,553.5 L237,569.7656 A0,0 0 0 0 237,569.7656 L569.8223,569.7656 A0,0 0 0 0 569.8223,569.7656 L569.8223,539.5 L559.8223,529.5 L237,529.5 A0,0 0 0 0 237,529.5" fill="#FEFFDD" style="stroke:#181818;stroke-width:0.5;"/><path d="M559.8223,529.5 L559.8223,539.5 L569.8223,539.5 L559.8223,529.5" fill="#FEFFDD" style="stroke:#181818;stroke-width:0.5;"/><text fill="#000000" font-family="sans-serif" font-size="13" font-weight="bold" lengthAdjust="spacing" textLength="48.4009" x="243" y="546.5669">Types:</text><text fill="#000000" font-family="sans-serif" font-size="13" lengthAdjust="spacing" textLength="259.2891" x="295.5332" y="546.5669">conference, concert, workshop, meetup</text><text fill="#000000" font-family="sans-serif" font-size="13" font-weight="bold" lengthAdjust="spacing" textLength="52.7554" x="243" y="561.6997">Status:</text><text fill="#000000" font-family="sans-serif" font-size="13" lengthAdjust="spacing" textLength="211.834" x="299.8877" y="561.6997">upcoming, completed, cancelled</text></g><!--link User to Event--><g class="link" data-entity-1="User" data-entity-2="Event" data-source-line="79" data-uid="lnk6" id="link_User_Event"><path codeLine="79" d="M272.42,201.01 C252.05,220.07 232.16,241.48 216.5,264 C199.08,289.06 183.83,317.22 170.66,345.81" fill="none" id="User-Event" style="stroke:#000000;stroke-width:1;"/><polygon fill="#000000" points="387.5382,276.6572,395.1435,270.9467,390.3344,267.567,387.5382,276.6572" style="stroke:#000000;stroke-width:1;"/><text fill="#000000" font-family="sans-serif" font-size="13" lengthAdjust="spacing" textLength="48.3247" x="399.4131" y="277.0669">creates</text><path d="M221.5,286.1328 L221.5,311.1328 L612.5,311.1328 L612.5,296.1328 L602.5,286.1328 L221.5,286.1328" fill="#FEFFDD" style="stroke:#181818;stroke-width:0.5;"/><path d="M602.5,286.1328 L602.5,296.1328 L612.5,296.1328 L602.5,286.1328" fill="#FEFFDD" style="stroke:#181818;stroke-width:0.5;"/><text fill="#000000" font-family="sans-serif" font-size="13" lengthAdjust="spacing" textLength="370.1509" x="227.5" y="303.1997">Un utilisateur peut cr&#233;er plusieurs &#233;v&#233;nements [cite: 23]</text><text fill="#000000" font-family="sans-serif" font-size="13" lengthAdjust="spacing" textLength="8.271" x="256.2419" y="203.6616">1</text><text fill="#000000" font-family="sans-serif" font-size="13" lengthAdjust="spacing" textLength="23.0356" x="149.804" y="334.639">0..*</text></g><!--link User to Favorite--><g class="link" data-entity-1="User" data-entity-2="Favorite" data-source-line="82" data-uid="lnk7" id="link_User_Favorite"><path codeLine="82" d="M478.56,223.2 C484.44,227.11 490.43,230.75 496.5,234 C546.85,261 586.13,219.13 621.5,264 C700.06,363.65 690.84,728.73 621.5,835 C587.23,887.52 521.65,915.13 466.25,929.56" fill="none" id="User-Favorite" style="stroke:#000000;stroke-width:1;"/><polygon fill="#000000" points="843.9783,537.0656,847.0744,528.0731,841.1974,527.9707,843.9783,537.0656" style="stroke:#000000;stroke-width:1;"/><text fill="#000000" font-family="sans-serif" font-size="13" lengthAdjust="spacing" textLength="22.9785" x="853.0654" y="536.5669">has</text><path d="M681.5,545.6328 L681.5,570.6328 L1034.5,570.6328 L1034.5,555.6328 L1024.5,545.6328 L681.5,545.6328" fill="#FEFFDD" style="stroke:#181818;stroke-width:0.5;"/><path d="M1024.5,545.6328 L1024.5,555.6328 L1034.5,555.6328 L1024.5,545.6328" fill="#FEFFDD" style="stroke:#181818;stroke-width:0.5;"/><text fill="#000000" font-family="sans-serif" font-size="13" lengthAdjust="spacing" textLength="332.1094" x="687.5" y="562.6997">Un utilisateur peut avoir plusieurs favoris [cite: 24]</text><text fill="#000000" font-family="sans-serif" font-size="13" lengthAdjust="spacing" textLength="8.271" x="486.1062" y="226.956">1</text><text fill="#000000" font-family="sans-serif" font-size="13" lengthAdjust="spacing" textLength="23.0356" x="473.731" y="924.9455">0..*</text></g><!--link Event to Favorite--><g class="link" data-entity-1="Event" data-entity-2="Favorite" data-source-line="85" data-uid="lnk8" id="link_Event_Favorite"><path codeLine="85" d="M69.4,753.36 C72.67,782.48 81.1,810.75 97.5,835 C137.34,893.92 214.48,921.28 276.79,933.99" fill="none" id="Event-Favorite" style="stroke:#000000;stroke-width:1;"/><polygon fill="#000000" points="345.6203,794.8503,340.7298,786.6935,336.8693,791.1259,345.6203,794.8503" style="stroke:#000000;stroke-width:1;"/><text fill="#000000" font-family="sans-serif" font-size="13" lengthAdjust="spacing" textLength="26.3682" x="350.8499" y="796.0669">is in</text><path d="M102.5,805.1328 L102.5,830.1328 L612.5,830.1328 L612.5,815.1328 L602.5,805.1328 L102.5,805.1328" fill="#FEFFDD" style="stroke:#181818;stroke-width:0.5;"/><path d="M602.5,805.1328 L602.5,815.1328 L612.5,815.1328 L602.5,805.1328" fill="#FEFFDD" style="stroke:#181818;stroke-width:0.5;"/><text fill="#000000" font-family="sans-serif" font-size="13" lengthAdjust="spacing" textLength="489.0679" x="108.5" y="822.1997">Un &#233;v&#233;nement peut &#234;tre dans les favoris de plusieurs utilisateurs [cite: 24]</text><text fill="#000000" font-family="sans-serif" font-size="13" lengthAdjust="spacing" textLength="8.271" x="60.1284" y="772.372">1</text><text fill="#000000" font-family="sans-serif" font-size="13" lengthAdjust="spacing" textLength="23.0356" x="246.0009" y="929.6261">0..*</text></g><!--SRC=[fLNDRjf04Bxp52CERKgJY92WIXmg6KfRf996WQILgWfjl0EiMEzQksjIMkM1qjVWnJhssh5DI9Mgd3o_tymtCujT2HKpmo889RCsSCw8cyJXADHg8duYj1ksxWA_6a2_FWjN2wCJnGTQQWDVbi9XPWcCqRTUsPVavTsruMYgshj6uoKS7Ht18CsA5ZZEXK8EGi44GoUqWaxgq6Xut2kB9WT_BNWFHkTJBoHaK2p27bm7buEFmUL1j_tAcp1YGfRwatPXY2dZBTLKsZhTRcvZQ-QOgMOheaA3p26VCTU3wMWyd4o3yKLUHCoVCCrctiFWGbY7vY1F9lL2g49OeBimUYuabXg5Xb9EzGfJjxk2X-4QbTjBH9s4paFPRXEJVdX-DVOoHniQ4QSKKx73htbusa0FtWNJOKwUuhDTdTGXyt6FOK8Mir2uJQMYs8WmZHyEHkFWazTPnrnYg_M8Y2t8wzFdymzbDHdNsing7VxN08ZZGCeAu_tDY1_KHbj8FbaXSPHOIXQP2PU5H2EZcVOtK-9uLpV9EgtExZrRQqE7ykGUrzl5TDJFPQ1eat5Um1G56Opq6dUrnC1uKoXhPKv2msBarwWI_ATD8so3rfQcq_BYbbhjEr7QSQ4MEpjoYpTMEDoNns_OuujUuQP-qAN9-dR-mXczUei5cgnlggPW27_4shYfdYmHNSwGVxGkKMPtO9SYtljqlV5FL_PeDK-Q946pVNpSQkRtsmC_IGjl6qhJHb2C56hLWoi5YHDIMB8c1c9C7FbkxobHB1ChI6bXUx_UtYkCA9M5Rs76LUVq-rx0XwNhmP8z3uyYH1LkdgKeaSu8oVVn91Hv4nrxm2gbUx3jRsSGE5CM99PO72i5L2giL-77CLH9j7SCP_02kjaeiZfep4i7Ukw7G4DkjTB3jRrM2-WVRuu6LOY7wNU8nXq2hTJABdLy216jG19d8VwkqvWa3dL42vD6H77wId3wP1Gi9V86lQ2Gulu1]--></g></svg>