<svg xmlns="http://www.w3.org/2000/svg" xmlns:xlink="http://www.w3.org/1999/xlink" contentStyleType="text/css" data-diagram-type="SEQUENCE" height="594px" preserveAspectRatio="none" style="width:1079px;height:594px;background:#FFFFFF;" version="1.1" viewBox="0 0 1079 594" width="1079px" zoomAndPan="magnify"><title>Sequence Diagram: Event Creation (UC7)</title><defs/><g><text fill="#000000" font-family="sans-serif" font-size="14" font-weight="bold" lengthAdjust="spacing" textLength="324.9668" x="378.1987" y="27.9951">Sequence Diagram: Event Creation (UC7)</text><g><title>Backend API</title><rect fill="#FFFFFF" height="322" style="stroke:#181818;stroke-width:1;" width="10" x="576.7993" y="181.8594"/></g><g><title>MySQL Database</title><rect fill="#FFFFFF" height="32.1328" style="stroke:#181818;stroke-width:1;" width="10" x="849.7915" y="283.2578"/></g><rect fill="none" height="254.8672" style="stroke:#000000;stroke-width:1.5;" width="1062.3643" x="10" y="241.9922"/><g><title>Utilisateur Authentifi.</title><rect fill="#000000" fill-opacity="0.00000" height="395.2656" width="8" x="95.7847" y="118.5938"/><line style="stroke:#181818;stroke-width:0.5;stroke-dasharray:5,5;" x1="99" x2="99" y1="118.5938" y2="513.8594"/></g><g><title>Frontend</title><rect fill="#000000" fill-opacity="0.00000" height="395.2656" width="8" x="353.3286" y="118.5938"/><line style="stroke:#181818;stroke-width:0.5;stroke-dasharray:5,5;" x1="356.7739" x2="356.7739" y1="118.5938" y2="513.8594"/></g><g><title>Backend API</title><rect fill="#000000" fill-opacity="0.00000" height="395.2656" width="8" x="577.7993" y="118.5938"/><line style="stroke:#181818;stroke-width:0.5;stroke-dasharray:5,5;" x1="581.3193" x2="581.3193" y1="118.5938" y2="513.8594"/></g><g><title>MySQL Database</title><rect fill="#000000" fill-opacity="0.00000" height="395.2656" width="8" x="850.7915" y="118.5938"/><line style="stroke:#181818;stroke-width:0.5;stroke-dasharray:5,5;" x1="854.1309" x2="854.1309" y1="118.5938" y2="513.8594"/></g><g class="participant participant-head" data-participant="User"><text fill="#000000" font-family="sans-serif" font-size="14" lengthAdjust="spacing" textLength="153.5693" x="20" y="115.292">Utilisateur Authentifi&#233;</text><ellipse cx="99.7847" cy="50.7969" fill="#E2E2F0" rx="8" ry="8" style="stroke:#181818;stroke-width:0.5;"/><path d="M99.7847,58.7969 L99.7847,85.7969 M86.7847,66.7969 L112.7847,66.7969 M99.7847,85.7969 L86.7847,100.7969 M99.7847,85.7969 L112.7847,100.7969" fill="none" style="stroke:#181818;stroke-width:0.5;"/></g><g class="participant participant-tail" data-participant="User"><text fill="#000000" font-family="sans-serif" font-size="14" lengthAdjust="spacing" textLength="153.5693" x="20" y="525.8545">Utilisateur Authentifi&#233;</text><ellipse cx="99.7847" cy="537.6563" fill="#E2E2F0" rx="8" ry="8" style="stroke:#181818;stroke-width:0.5;"/><path d="M99.7847,545.6563 L99.7847,572.6563 M86.7847,553.6563 L112.7847,553.6563 M99.7847,572.6563 L86.7847,587.6563 M99.7847,572.6563 L112.7847,587.6563" fill="none" style="stroke:#181818;stroke-width:0.5;"/></g><g class="participant participant-head" data-participant="Front"><rect fill="#E2E2F0" height="30.2969" rx="2.5" ry="2.5" style="stroke:#181818;stroke-width:0.5;" width="77.1094" x="318.7739" y="87.2969"/><text fill="#000000" font-family="sans-serif" font-size="14" lengthAdjust="spacing" textLength="63.1094" x="325.7739" y="107.292">Frontend</text></g><g class="participant participant-tail" data-participant="Front"><rect fill="#E2E2F0" height="30.2969" rx="2.5" ry="2.5" style="stroke:#181818;stroke-width:0.5;" width="77.1094" x="318.7739" y="512.8594"/><text fill="#000000" font-family="sans-serif" font-size="14" lengthAdjust="spacing" textLength="63.1094" x="325.7739" y="532.8545">Frontend</text></g><g class="participant participant-head" data-participant="API"><rect fill="#E2E2F0" height="30.2969" rx="2.5" ry="2.5" style="stroke:#181818;stroke-width:0.5;" width="100.96" x="531.3193" y="87.2969"/><text fill="#000000" font-family="sans-serif" font-size="14" lengthAdjust="spacing" textLength="86.96" x="538.3193" y="107.292">Backend API</text></g><g class="participant participant-tail" data-participant="API"><rect fill="#E2E2F0" height="30.2969" rx="2.5" ry="2.5" style="stroke:#181818;stroke-width:0.5;" width="100.96" x="531.3193" y="512.8594"/><text fill="#000000" font-family="sans-serif" font-size="14" lengthAdjust="spacing" textLength="86.96" x="538.3193" y="532.8545">Backend API</text></g><g class="participant participant-head" data-participant="DB"><text fill="#000000" font-family="sans-serif" font-size="14" lengthAdjust="spacing" textLength="119.3213" x="792.1309" y="115.292">MySQL Database</text><path d="M836.7915,66.2969 C836.7915,56.2969 854.7915,56.2969 854.7915,56.2969 C854.7915,56.2969 872.7915,56.2969 872.7915,66.2969 L872.7915,92.2969 C872.7915,102.2969 854.7915,102.2969 854.7915,102.2969 C854.7915,102.2969 836.7915,102.2969 836.7915,92.2969 L836.7915,66.2969" fill="#E2E2F0" style="stroke:#181818;stroke-width:0.5;"/><path d="M836.7915,66.2969 C836.7915,76.2969 854.7915,76.2969 854.7915,76.2969 C854.7915,76.2969 872.7915,76.2969 872.7915,66.2969" fill="none" style="stroke:#181818;stroke-width:0.5;"/></g><g class="participant participant-tail" data-participant="DB"><text fill="#000000" font-family="sans-serif" font-size="14" lengthAdjust="spacing" textLength="119.3213" x="792.1309" y="525.8545">MySQL Database</text><path d="M836.7915,539.1563 C836.7915,529.1563 854.7915,529.1563 854.7915,529.1563 C854.7915,529.1563 872.7915,529.1563 872.7915,539.1563 L872.7915,565.1563 C872.7915,575.1563 854.7915,575.1563 854.7915,575.1563 C854.7915,575.1563 836.7915,575.1563 836.7915,565.1563 L836.7915,539.1563" fill="#E2E2F0" style="stroke:#181818;stroke-width:0.5;"/><path d="M836.7915,539.1563 C836.7915,549.1563 854.7915,549.1563 854.7915,549.1563 C854.7915,549.1563 872.7915,549.1563 872.7915,539.1563" fill="none" style="stroke:#181818;stroke-width:0.5;"/></g><g><title>Backend API</title><rect fill="#FFFFFF" height="322" style="stroke:#181818;stroke-width:1;" width="10" x="576.7993" y="181.8594"/></g><g><title>MySQL Database</title><rect fill="#FFFFFF" height="32.1328" style="stroke:#181818;stroke-width:1;" width="10" x="849.7915" y="283.2578"/></g><g class="message" data-participant-1="User" data-participant-2="Front"><polygon fill="#181818" points="345.3286,145.7266,355.3286,149.7266,345.3286,153.7266,349.3286,149.7266" style="stroke:#181818;stroke-width:1;"/><line style="stroke:#181818;stroke-width:1;" x1="99.7847" x2="351.3286" y1="149.7266" y2="149.7266"/><text fill="#000000" font-family="sans-serif" font-size="13" font-weight="bold" lengthAdjust="spacing" textLength="9.0454" x="106.7847" y="144.6606">1</text><text fill="#000000" font-family="sans-serif" font-size="13" lengthAdjust="spacing" textLength="199.7671" x="119.8301" y="144.6606">Remplit formulaire &#233;v&#233;nement</text></g><g class="message" data-participant-1="Front" data-participant-2="API"><polygon fill="#181818" points="564.7993,177.8594,574.7993,181.8594,564.7993,185.8594,568.7993,181.8594" style="stroke:#181818;stroke-width:1;"/><line style="stroke:#181818;stroke-width:1;" x1="357.3286" x2="570.7993" y1="181.8594" y2="181.8594"/><text fill="#000000" font-family="sans-serif" font-size="13" font-weight="bold" lengthAdjust="spacing" textLength="9.0454" x="364.3286" y="176.7935">2</text><text fill="#000000" font-family="sans-serif" font-size="13" lengthAdjust="spacing" textLength="110.7856" x="377.374" y="176.7935">POST /api/events</text></g><path d="M591,162.7266 L591,187.7266 L820,187.7266 L820,172.7266 L810,162.7266 L591,162.7266" fill="#FEFFDD" style="stroke:#181818;stroke-width:0.5;"/><path d="M810,162.7266 L810,172.7266 L820,172.7266 L810,162.7266" fill="#FEFFDD" style="stroke:#181818;stroke-width:0.5;"/><text fill="#000000" font-family="sans-serif" font-size="13" lengthAdjust="spacing" textLength="208.749" x="597" y="179.7935">Payload: {name, type, date, ...}</text><g class="message" data-participant-1="API" data-participant-2="API"><line style="stroke:#181818;stroke-width:1;" x1="586.7993" x2="628.7993" y1="213.9922" y2="213.9922"/><line style="stroke:#181818;stroke-width:1;" x1="628.7993" x2="628.7993" y1="213.9922" y2="226.9922"/><line style="stroke:#181818;stroke-width:1;" x1="587.7993" x2="628.7993" y1="226.9922" y2="226.9922"/><polygon fill="#181818" points="597.7993,222.9922,587.7993,226.9922,597.7993,230.9922,593.7993,226.9922" style="stroke:#181818;stroke-width:1;"/><text fill="#000000" font-family="sans-serif" font-size="13" font-weight="bold" lengthAdjust="spacing" textLength="9.0454" x="593.7993" y="208.9263">3</text><text fill="#000000" font-family="sans-serif" font-size="13" lengthAdjust="spacing" textLength="119.9326" x="606.8447" y="208.9263">V&#233;rifier Token JWT</text></g><path d="M10,241.9922 L74.4429,241.9922 L74.4429,249.125 L64.4429,259.125 L10,259.125 L10,241.9922" fill="#EEEEEE" style="stroke:#000000;stroke-width:1.5;"/><rect fill="none" height="254.8672" style="stroke:#000000;stroke-width:1.5;" width="1062.3643" x="10" y="241.9922"/><text fill="#000000" font-family="sans-serif" font-size="13" font-weight="bold" lengthAdjust="spacing" textLength="19.4429" x="25" y="255.0591">alt</text><text fill="#000000" font-family="sans-serif" font-size="11" font-weight="bold" lengthAdjust="spacing" textLength="90.3633" x="89.4429" y="254.2026">[Token Valide]</text><g class="message" data-participant-1="API" data-participant-2="DB"><polygon fill="#181818" points="837.7915,279.2578,847.7915,283.2578,837.7915,287.2578,841.7915,283.2578" style="stroke:#181818;stroke-width:1;"/><line style="stroke:#181818;stroke-width:1;" x1="586.7993" x2="843.7915" y1="283.2578" y2="283.2578"/><text fill="#000000" font-family="sans-serif" font-size="13" font-weight="bold" lengthAdjust="spacing" textLength="9.0454" x="593.7993" y="278.1919">4</text><text fill="#000000" font-family="sans-serif" font-size="13" lengthAdjust="spacing" textLength="230.9468" x="606.8447" y="278.1919">INSERT INTO events (..., creator_id)</text></g><path d="M864,264.125 L864,289.125 L1061,289.125 L1061,274.125 L1051,264.125 L864,264.125" fill="#FEFFDD" style="stroke:#181818;stroke-width:0.5;"/><path d="M1051,264.125 L1051,274.125 L1061,274.125 L1051,264.125" fill="#FEFFDD" style="stroke:#181818;stroke-width:0.5;"/><text fill="#000000" font-family="sans-serif" font-size="13" lengthAdjust="spacing" textLength="176.5728" x="870" y="281.1919">creator_id extrait du Token</text><g class="message" data-participant-1="DB" data-participant-2="API"><polygon fill="#181818" points="597.7993,311.3906,587.7993,315.3906,597.7993,319.3906,593.7993,315.3906" style="stroke:#181818;stroke-width:1;"/><line style="stroke:#181818;stroke-width:1;stroke-dasharray:2,2;" x1="591.7993" x2="853.7915" y1="315.3906" y2="315.3906"/><text fill="#000000" font-family="sans-serif" font-size="13" font-weight="bold" lengthAdjust="spacing" textLength="9.0454" x="603.7993" y="310.3247">5</text><text fill="#000000" font-family="sans-serif" font-size="13" lengthAdjust="spacing" textLength="142.562" x="616.8447" y="310.3247">Returns New Event ID</text></g><g class="message" data-participant-1="API" data-participant-2="Front"><polygon fill="#181818" points="368.3286,340.5234,358.3286,344.5234,368.3286,348.5234,364.3286,344.5234" style="stroke:#181818;stroke-width:1;"/><line style="stroke:#181818;stroke-width:1;stroke-dasharray:2,2;" x1="362.3286" x2="575.7993" y1="344.5234" y2="344.5234"/><text fill="#000000" font-family="sans-serif" font-size="13" font-weight="bold" lengthAdjust="spacing" textLength="9.0454" x="374.3286" y="339.4575">6</text><text fill="#000000" font-family="sans-serif" font-size="13" lengthAdjust="spacing" textLength="182.4253" x="387.374" y="339.4575">201 Created { event_data }</text></g><g class="message" data-participant-1="Front" data-participant-2="User"><polygon fill="#181818" points="110.7847,369.6563,100.7847,373.6563,110.7847,377.6563,106.7847,373.6563" style="stroke:#181818;stroke-width:1;"/><line style="stroke:#181818;stroke-width:1;stroke-dasharray:2,2;" x1="104.7847" x2="356.3286" y1="373.6563" y2="373.6563"/><text fill="#000000" font-family="sans-serif" font-size="13" font-weight="bold" lengthAdjust="spacing" textLength="9.0454" x="116.7847" y="368.5903">7</text><text fill="#000000" font-family="sans-serif" font-size="13" lengthAdjust="spacing" textLength="169.8252" x="129.8301" y="368.5903">Affiche "&#201;v&#233;nement Cr&#233;&#233;"</text></g><g class="message" data-participant-1="Front" data-participant-2="Front"><line style="stroke:#181818;stroke-width:1;" x1="357.3286" x2="399.3286" y1="402.7891" y2="402.7891"/><line style="stroke:#181818;stroke-width:1;" x1="399.3286" x2="399.3286" y1="402.7891" y2="415.7891"/><line style="stroke:#181818;stroke-width:1;" x1="358.3286" x2="399.3286" y1="415.7891" y2="415.7891"/><polygon fill="#181818" points="368.3286,411.7891,358.3286,415.7891,368.3286,419.7891,364.3286,415.7891" style="stroke:#181818;stroke-width:1;"/><text fill="#000000" font-family="sans-serif" font-size="13" font-weight="bold" lengthAdjust="spacing" textLength="9.0454" x="364.3286" y="397.7231">8</text><text fill="#000000" font-family="sans-serif" font-size="13" lengthAdjust="spacing" textLength="181.7271" x="377.374" y="397.7231">Rediriger vers D&#233;tails (UC4)</text></g><line style="stroke:#000000;stroke-width:1;stroke-dasharray:2,2;" x1="10" x2="1072.3643" y1="424.7891" y2="424.7891"/><text fill="#000000" font-family="sans-serif" font-size="11" font-weight="bold" lengthAdjust="spacing" textLength="156.1055" x="15" y="434.9995">[Token Invalide / Absent]</text><g class="message" data-participant-1="API" data-participant-2="Front"><polygon fill="#181818" points="368.3286,455.7266,358.3286,459.7266,368.3286,463.7266,364.3286,459.7266" style="stroke:#181818;stroke-width:1;"/><line style="stroke:#181818;stroke-width:1;stroke-dasharray:2,2;" x1="362.3286" x2="575.7993" y1="459.7266" y2="459.7266"/><text fill="#000000" font-family="sans-serif" font-size="13" font-weight="bold" lengthAdjust="spacing" textLength="9.0454" x="374.3286" y="454.6606">9</text><text fill="#000000" font-family="sans-serif" font-size="13" lengthAdjust="spacing" textLength="116.2256" x="387.374" y="454.6606">401 Unauthorized</text></g><g class="message" data-participant-1="Front" data-participant-2="User"><polygon fill="#181818" points="110.7847,484.8594,100.7847,488.8594,110.7847,492.8594,106.7847,488.8594" style="stroke:#181818;stroke-width:1;"/><line style="stroke:#181818;stroke-width:1;stroke-dasharray:2,2;" x1="104.7847" x2="356.3286" y1="488.8594" y2="488.8594"/><text fill="#000000" font-family="sans-serif" font-size="13" font-weight="bold" lengthAdjust="spacing" textLength="18.0908" x="116.7847" y="483.7935">10</text><text fill="#000000" font-family="sans-serif" font-size="13" lengthAdjust="spacing" textLength="211.4531" x="138.8755" y="483.7935">Erreur "Veuillez vous connecter"</text></g><!--SRC=[RLB1Rjim3BthAmYV6g1Djg70W1m694q6PDZQB76oOy7OJ4DCbZ9PzfOM_O1zYh_3FpPA3j9qg0-I2JsIZ-_HizS4I_fLaSa89emF3eiXJ6io7cuSeMThu69ryx6diFBMLCM6d5AOUUiWMNdMNAAdoi6eyZl9uYstJG9OmgeKv1wTvuptAFMIpyuQJoQFpp5u_Jx6xASymsW-Yn2vLOuUDrWI9DyEo-zVONAC8s0oLYgqWQjFNJqOmeAAlMOFM-kAIYCxWhQfsyPG8VHK1nEy51Vq_6wPmW3tFA0mSnacurecYisDbH_73xjGU8u7RJ4VmfF1WYx17_Po2Zyv-_t-irAXvAdokcsSY27aKYjJmPSVgUYc_J5Se-QS5CXtJ9kC9MjskvmkKhdIE-WOmOKKluGic67TFUUzc7JYAHg4-1NL5p3G7-zGvCYhhd44nqFwNPtOBiXNpfHmIx-Fxiyc4PNJ_vrUE9-f_k7T-svVA8UdZlbzi0wU8_oekYH4kuOmscuvsuchxT-JDrAWRMHvpZFEVSrPvfFicfnOtpOUMPTXEQzxYhIiIAVipDHHMnZ0Q5C6pzyYV2s4LqPsUcSTFrB-DisfSs6tapLLh3KzGcsh4Z9h36MUNA9aNPKwqqZQ_0C0]--></g></svg>