<svg xmlns="http://www.w3.org/2000/svg" xmlns:xlink="http://www.w3.org/1999/xlink" contentStyleType="text/css" data-diagram-type="DESCRIPTION" height="1246px" preserveAspectRatio="none" style="width:1192px;height:1246px;background:#FFFFFF;" version="1.1" viewBox="0 0 1192 1246" width="1192px" zoomAndPan="magnify"><defs/><g><!--cluster EventScraper Hub--><g class="cluster" data-entity="EventScraper Hub" data-source-line="14" data-uid="ent0008" id="cluster_EventScraper Hub"><rect fill="none" height="1233" rx="2.5" ry="2.5" style="stroke:#181818;stroke-width:1;" width="277" x="451" y="7"/><text fill="#000000" font-family="sans-serif" font-size="14" font-weight="bold" lengthAdjust="spacing" textLength="142.5771" x="518.2114" y="21.9951">EventScraper Hub</text></g><!--entity UC1--><g class="entity" data-entity="UC1" data-source-line="17" data-uid="ent0009" id="entity_UC1"><ellipse cx="589.6911" cy="810.0382" fill="#F1F1F1" rx="120.6911" ry="26.5382" style="stroke:#181818;stroke-width:0.5;"/><text fill="#000000" font-family="sans-serif" font-size="14" lengthAdjust="spacing" textLength="220.8281" x="479.277" y="814.6867">UC1: Consulter les &#233;v&#233;nements</text></g><!--entity UC2--><g class="entity" data-entity="UC2" data-source-line="18" data-uid="ent0010" id="entity_UC2"><ellipse cx="589.4501" cy="898.89" fill="#F1F1F1" rx="122.4501" ry="26.89" style="stroke:#181818;stroke-width:0.5;"/><text fill="#000000" font-family="sans-serif" font-size="14" lengthAdjust="spacing" textLength="224.5742" x="477.163" y="903.5385">UC2: Rechercher un &#233;v&#233;nement</text></g><!--entity UC3--><g class="entity" data-entity="UC3" data-source-line="19" data-uid="ent0011" id="entity_UC3"><ellipse cx="589.7373" cy="985.1475" fill="#F1F1F1" rx="108.7373" ry="24.1475" style="stroke:#181818;stroke-width:0.5;"/><text fill="#000000" font-family="sans-serif" font-size="14" lengthAdjust="spacing" textLength="195.1455" x="492.1645" y="989.7959">UC3: Filtrer les &#233;v&#233;nements</text></g><!--entity UC4--><g class="entity" data-entity="UC4" data-source-line="20" data-uid="ent0012" id="entity_UC4"><ellipse cx="589.5227" cy="1063.8045" fill="#F1F1F1" rx="84.5227" ry="19.3045" style="stroke:#181818;stroke-width:0.5;"/><text fill="#000000" font-family="sans-serif" font-size="14" lengthAdjust="spacing" textLength="141.2236" x="518.9109" y="1068.453">UC4: Voir les d&#233;tails</text></g><!--entity UC5--><g class="entity" data-entity="UC5" data-source-line="21" data-uid="ent0013" id="entity_UC5"><ellipse cx="589.5107" cy="1135.1021" fill="#F1F1F1" rx="68.5107" ry="16.1021" style="stroke:#181818;stroke-width:0.5;"/><text fill="#000000" font-family="sans-serif" font-size="14" lengthAdjust="spacing" textLength="102.6006" x="538.2104" y="1139.7506">UC5: S'inscrire</text></g><!--entity UC6--><g class="entity" data-entity="UC6" data-source-line="22" data-uid="ent0014" id="entity_UC6"><ellipse cx="589.3085" cy="1204.8617" fill="#F1F1F1" rx="79.8085" ry="18.3617" style="stroke:#181818;stroke-width:0.5;"/><text fill="#000000" font-family="sans-serif" font-size="14" lengthAdjust="spacing" textLength="130.2246" x="524.1961" y="1209.5101">UC6: Se connecter</text></g><!--entity UC7--><g class="entity" data-entity="UC7" data-source-line="25" data-uid="ent0015" id="entity_UC7"><ellipse cx="589.6005" cy="65.0201" fill="#F1F1F1" rx="103.1005" ry="23.0201" style="stroke:#181818;stroke-width:0.5;"/><text fill="#000000" font-family="sans-serif" font-size="14" lengthAdjust="spacing" textLength="182.8682" x="498.1665" y="69.6685">UC7: Cr&#233;er un &#233;v&#233;nement</text></g><!--entity UC8--><g class="entity" data-entity="UC8" data-source-line="26" data-uid="ent0016" id="entity_UC8"><ellipse cx="589.4271" cy="148.1854" fill="#F1F1F1" rx="111.4271" ry="24.6854" style="stroke:#181818;stroke-width:0.5;"/><text fill="#000000" font-family="sans-serif" font-size="14" lengthAdjust="spacing" textLength="200.9629" x="488.9457" y="152.8339">UC8: Modifier un &#233;v&#233;nement</text></g><!--entity UC9--><g class="entity" data-entity="UC9" data-source-line="27" data-uid="ent0017" id="entity_UC9"><ellipse cx="589.6501" cy="234.23" fill="#F1F1F1" rx="119.1501" ry="26.23" style="stroke:#181818;stroke-width:0.5;"/><text fill="#000000" font-family="sans-serif" font-size="14" lengthAdjust="spacing" textLength="217.54" x="480.8801" y="238.8785">UC9: Supprimer un &#233;v&#233;nement</text></g><!--entity UC10--><g class="entity" data-entity="UC10" data-source-line="28" data-uid="ent0018" id="entity_UC10"><ellipse cx="589.6571" cy="318.2314" fill="#F1F1F1" rx="101.6571" ry="22.7314" style="stroke:#181818;stroke-width:0.5;"/><text fill="#000000" font-family="sans-serif" font-size="14" lengthAdjust="spacing" textLength="179.7031" x="499.8056" y="322.8799">UC10: Ajouter aux favoris</text></g><!--entity UC11--><g class="entity" data-entity="UC11" data-source-line="29" data-uid="ent0019" id="entity_UC11"><ellipse cx="589.4016" cy="397.8803" fill="#F1F1F1" rx="99.9016" ry="22.3803" style="stroke:#181818;stroke-width:0.5;"/><text fill="#000000" font-family="sans-serif" font-size="14" lengthAdjust="spacing" textLength="175.8408" x="501.4812" y="402.5288">UC11: Retirer des favoris</text></g><!--entity UC12--><g class="entity" data-entity="UC12" data-source-line="30" data-uid="ent0020" id="entity_UC12"><ellipse cx="589.4237" cy="480.0847" fill="#F1F1F1" rx="110.9237" ry="24.5847" style="stroke:#181818;stroke-width:0.5;"/><text fill="#000000" font-family="sans-serif" font-size="14" lengthAdjust="spacing" textLength="199.876" x="489.4857" y="484.7332">UC12: Consulter mes favoris</text></g><!--entity UC13--><g class="entity" data-entity="UC13" data-source-line="31" data-uid="ent0021" id="entity_UC13"><ellipse cx="589.3796" cy="563.1759" fill="#F1F1F1" rx="106.3796" ry="23.6759" style="stroke:#181818;stroke-width:0.5;"/><text fill="#000000" font-family="sans-serif" font-size="14" lengthAdjust="spacing" textLength="190.0254" x="494.3669" y="567.8244">UC13: Consulter mon profil</text></g><!--entity UC14--><g class="entity" data-entity="UC14" data-source-line="32" data-uid="ent0022" id="entity_UC14"><ellipse cx="589.5448" cy="646.809" fill="#F1F1F1" rx="114.5448" ry="25.309" style="stroke:#181818;stroke-width:0.5;"/><text fill="#000000" font-family="sans-serif" font-size="14" lengthAdjust="spacing" textLength="207.6758" x="485.7069" y="651.4574">UC14: D&#233;clencher le scraping</text></g><!--entity UC15--><g class="entity" data-entity="UC15" data-source-line="33" data-uid="ent0023" id="entity_UC15"><ellipse cx="589.2797" cy="728.1559" fill="#F1F1F1" rx="91.2797" ry="20.6559" style="stroke:#181818;stroke-width:0.5;"/><text fill="#000000" font-family="sans-serif" font-size="14" lengthAdjust="spacing" textLength="156.6318" x="510.9638" y="732.8044">UC15: Se d&#233;connecter</text></g><!--entity Guest--><g class="entity" data-entity="Guest" data-source-line="5" data-uid="ent0002" id="entity_Guest"><ellipse cx="32.6909" cy="955.5" fill="#F1F1F1" rx="8" ry="8" style="stroke:#181818;stroke-width:0.5;"/><path d="M32.6909,963.5 L32.6909,990.5 M19.6909,971.5 L45.6909,971.5 M32.6909,990.5 L19.6909,1005.5 M32.6909,990.5 L45.6909,1005.5" fill="none" style="stroke:#181818;stroke-width:0.5;"/><text fill="#000000" font-family="sans-serif" font-size="14" lengthAdjust="spacing" textLength="53.3818" x="6" y="1019.9951">Visiteur</text></g><!--entity Member--><g class="entity" data-entity="Member" data-source-line="6" data-uid="ent0003" id="entity_Member"><ellipse cx="196.7847" cy="409.5" fill="#F1F1F1" rx="8" ry="8" style="stroke:#181818;stroke-width:0.5;"/><path d="M196.7847,417.5 L196.7847,444.5 M183.7847,425.5 L209.7847,425.5 M196.7847,444.5 L183.7847,459.5 M196.7847,444.5 L209.7847,459.5" fill="none" style="stroke:#181818;stroke-width:0.5;"/><text fill="#000000" font-family="sans-serif" font-size="14" lengthAdjust="spacing" textLength="153.5693" x="120" y="473.9951">Utilisateur Authentifi&#233;</text></g><!--entity n8n--><g class="entity" data-entity="n8n" data-source-line="7" data-uid="ent0004" id="entity_n8n"><ellipse cx="883.1045" cy="617.5" fill="#F1F1F1" rx="8" ry="8" style="stroke:#181818;stroke-width:0.5;"/><path d="M883.1045,625.5 L883.1045,652.5 M870.1045,633.5 L896.1045,633.5 M883.1045,652.5 L870.1045,667.5 M883.1045,652.5 L896.1045,667.5" fill="none" style="stroke:#181818;stroke-width:0.5;"/><text fill="#000000" font-family="sans-serif" font-size="14" lengthAdjust="spacing" textLength="96.209" x="835" y="681.9951">n8n Workflow</text></g><!--entity GMaps--><g class="entity" data-entity="GMaps" data-source-line="8" data-uid="ent0005" id="entity_GMaps"><ellipse cx="1126.6284" cy="561.5" fill="#F1F1F1" rx="8" ry="8" style="stroke:#181818;stroke-width:0.5;"/><path d="M1126.6284,569.5 L1126.6284,596.5 M1113.6284,577.5 L1139.6284,577.5 M1126.6284,596.5 L1113.6284,611.5 M1126.6284,596.5 L1139.6284,611.5" fill="none" style="stroke:#181818;stroke-width:0.5;"/><text fill="#000000" font-family="sans-serif" font-size="14" lengthAdjust="spacing" textLength="117.2568" x="1068" y="625.9951">Google Maps API</text></g><!--entity GSheets--><g class="entity" data-entity="GSheets" data-source-line="9" data-uid="ent0006" id="entity_GSheets"><ellipse cx="1126.2944" cy="672.5" fill="#F1F1F1" rx="8" ry="8" style="stroke:#181818;stroke-width:0.5;"/><path d="M1126.2944,680.5 L1126.2944,707.5 M1113.2944,688.5 L1139.2944,688.5 M1126.2944,707.5 L1113.2944,722.5 M1126.2944,707.5 L1139.2944,722.5" fill="none" style="stroke:#181818;stroke-width:0.5;"/><text fill="#000000" font-family="sans-serif" font-size="14" lengthAdjust="spacing" textLength="101.5889" x="1075.5" y="736.9951">Google Sheets</text></g><!--reverse link Guest to Member--><g class="link" data-entity-1="Guest" data-entity-2="Member" data-source-line="12" data-uid="lnk7" id="link_Guest_Member"><path d="M49.8117,929.5522 C60.9917,891.5622 73.59,848.87 89,797 C123.63,680.4 164.93,542.56 184.56,477.14" fill="none" id="Guest-backto-Member" style="stroke:#181818;stroke-width:1;"/><polygon fill="none" points="44.73,946.82,55.5676,931.2461,44.0558,927.8583,44.73,946.82" style="stroke:#181818;stroke-width:1;"/></g><!--link Guest to UC1--><g class="link" data-entity-1="Guest" data-entity-2="UC1" data-source-line="40" data-uid="lnk24" id="link_Guest_UC1"><path d="M59.36,955.36 C75.19,939.22 96.81,920.47 120,910 C235.78,857.7 374.2352,832.9448 471.8852,820.8948" fill="none" id="Guest-to-UC1" style="stroke:#181818;stroke-width:1;"/><polygon fill="#181818" points="477.84,820.16,468.4179,817.2924,472.8776,820.7724,469.3976,825.2321,477.84,820.16" style="stroke:#181818;stroke-width:1;"/></g><!--link Guest to UC2--><g class="link" data-entity-1="Guest" data-entity-2="UC2" data-source-line="41" data-uid="lnk25" id="link_Guest_UC2"><path d="M59.09,970.93 C68.28,966.44 78.87,961.9 89,959 C215.27,922.85 359.5493,908.8042 462.0693,903.0842" fill="none" id="Guest-to-UC2" style="stroke:#181818;stroke-width:1;"/><polygon fill="#181818" points="468.06,902.75,458.8511,899.2576,463.0678,903.0285,459.2968,907.2452,468.06,902.75" style="stroke:#181818;stroke-width:1;"/></g><!--link Guest to UC3--><g class="link" data-entity-1="Guest" data-entity-2="UC3" data-source-line="42" data-uid="lnk26" id="link_Guest_UC3"><path d="M59.16,985 C132.92,985 342.73,985 474.91,985" fill="none" id="Guest-to-UC3" style="stroke:#181818;stroke-width:1;"/><polygon fill="#181818" points="480.91,985,471.91,981,475.91,985,471.91,989,480.91,985" style="stroke:#181818;stroke-width:1;"/></g><!--link Guest to UC4--><g class="link" data-entity-1="Guest" data-entity-2="UC4" data-source-line="43" data-uid="lnk27" id="link_Guest_UC4"><path d="M59.2,988.71 C68.57,990.07 79.27,991.61 89,993 C241.39,1014.81 414.0192,1039.2989 510.9992,1053.0289" fill="none" id="Guest-to-UC4" style="stroke:#181818;stroke-width:1;"/><polygon fill="#181818" points="516.94,1053.87,508.5896,1048.6479,511.9894,1053.1691,507.4682,1056.5689,516.94,1053.87" style="stroke:#181818;stroke-width:1;"/></g><!--link Guest to UC5--><g class="link" data-entity-1="Guest" data-entity-2="UC5" data-source-line="44" data-uid="lnk28" id="link_Guest_UC5"><path d="M59.34,999.45 C76.19,1008.4 98.91,1019.55 120,1027 C264.44,1077.98 436.6011,1110.3769 525.8911,1125.2069" fill="none" id="Guest-to-UC5" style="stroke:#181818;stroke-width:1;"/><polygon fill="#181818" points="531.81,1126.19,523.587,1120.7695,526.8776,1125.3708,522.2762,1128.6614,531.81,1126.19" style="stroke:#181818;stroke-width:1;"/></g><!--link Guest to UC6--><g class="link" data-entity-1="Guest" data-entity-2="UC6" data-source-line="45" data-uid="lnk29" id="link_Guest_UC6"><path d="M59.23,1022.24 C74.72,1042.05 96.05,1065.3 120,1080 C245.19,1156.85 411.4312,1186.3082 508.3912,1197.7282" fill="none" id="Guest-to-UC6" style="stroke:#181818;stroke-width:1;"/><polygon fill="#181818" points="514.35,1198.43,505.8797,1193.4047,509.3843,1197.8451,504.9439,1201.3498,514.35,1198.43" style="stroke:#181818;stroke-width:1;"/></g><!--link Member to UC7--><g class="link" data-entity-1="Member" data-entity-2="UC7" data-source-line="48" data-uid="lnk30" id="link_Member_UC7"><path d="M210.35,400.95 C226.7,354.48 258.82,275.04 304,218 C353.26,155.81 372.5,142.39 443,106 C464.46,94.93 483.4887,88.0887 506.4887,81.8587" fill="none" id="Member-to-UC7" style="stroke:#181818;stroke-width:1;"/><polygon fill="#181818" points="512.28,80.29,502.5472,78.7822,507.4539,81.5972,504.6388,86.5039,512.28,80.29" style="stroke:#181818;stroke-width:1;"/></g><!--link Member to UC8--><g class="link" data-entity-1="Member" data-entity-2="UC8" data-source-line="49" data-uid="lnk31" id="link_Member_UC8"><path d="M220.48,400.88 C240.15,369.37 270.7,324.52 304,291 C357.81,236.82 374.39,223.54 443,190 C463.9,179.78 481.9683,173.2494 504.2183,166.9294" fill="none" id="Member-to-UC8" style="stroke:#181818;stroke-width:1;"/><polygon fill="#181818" points="509.99,165.29,500.2395,163.9013,505.1803,166.6562,502.4254,171.5969,509.99,165.29" style="stroke:#181818;stroke-width:1;"/></g><!--link Member to UC9--><g class="link" data-entity-1="Member" data-entity-2="UC9" data-source-line="50" data-uid="lnk32" id="link_Member_UC9"><path d="M239.73,400.9 C258.64,384.57 281.71,365.86 304,351 C362.05,312.28 378.42,304.44 443,278 C465.22,268.9 484.2799,262.4236 507.0299,255.6436" fill="none" id="Member-to-UC9" style="stroke:#181818;stroke-width:1;"/><polygon fill="#181818" points="512.78,253.93,503.0124,252.6671,507.9883,255.358,505.2973,260.3339,512.78,253.93" style="stroke:#181818;stroke-width:1;"/></g><!--link Member to UC10--><g class="link" data-entity-1="Member" data-entity-2="UC10" data-source-line="51" data-uid="lnk33" id="link_Member_UC10"><path d="M274.26,405.97 C284.19,402.08 294.29,398.31 304,395 C376.16,370.37 454.8702,349.7488 512.9302,335.6188" fill="none" id="Member-to-UC10" style="stroke:#181818;stroke-width:1;"/><polygon fill="#181818" points="518.76,334.2,509.0694,332.4416,513.9018,335.3823,510.9611,340.2148,518.76,334.2" style="stroke:#181818;stroke-width:1;"/></g><!--link Member to UC11--><g class="link" data-entity-1="Member" data-entity-2="UC11" data-source-line="52" data-uid="lnk34" id="link_Member_UC11"><path d="M274.22,431 C338.48,424.25 424.5827,415.2059 492.4627,408.0859" fill="none" id="Member-to-UC11" style="stroke:#181818;stroke-width:1;"/><polygon fill="#181818" points="498.43,407.46,489.0618,404.4207,493.4573,407.9816,489.8964,412.377,498.43,407.46" style="stroke:#181818;stroke-width:1;"/></g><!--link Member to UC12--><g class="link" data-entity-1="Member" data-entity-2="UC12" data-source-line="53" data-uid="lnk35" id="link_Member_UC12"><path d="M274.22,447 C335.48,453.43 416.0528,461.8934 482.8128,468.9034" fill="none" id="Member-to-UC12" style="stroke:#181818;stroke-width:1;"/><polygon fill="#181818" points="488.78,469.53,480.2469,464.612,483.8073,469.0079,479.4115,472.5683,488.78,469.53" style="stroke:#181818;stroke-width:1;"/></g><!--link Member to UC13--><g class="link" data-entity-1="Member" data-entity-2="UC13" data-source-line="54" data-uid="lnk36" id="link_Member_UC13"><path d="M274.09,465.91 C322.29,482.68 386.06,504.34 443,522 C468.44,529.89 490.7994,536.3622 515.4994,543.2322" fill="none" id="Member-to-UC13" style="stroke:#181818;stroke-width:1;"/><polygon fill="#181818" points="521.28,544.84,513.681,538.5746,516.4629,543.5002,511.5373,546.282,521.28,544.84" style="stroke:#181818;stroke-width:1;"/></g><!--link Member to UC14--><g class="link" data-entity-1="Member" data-entity-2="UC14" data-source-line="55" data-uid="lnk37" id="link_Member_UC14"><path d="M230.5,477.13 C250.17,498.51 276.67,524.51 304,543 C366.62,585.35 442.8246,611.3764 502.6946,627.4264" fill="none" id="Member-to-UC14" style="stroke:#181818;stroke-width:1;"/><polygon fill="#181818" points="508.49,628.98,500.8327,622.786,503.6605,627.6853,498.7612,630.5131,508.49,628.98" style="stroke:#181818;stroke-width:1;"/><text fill="#000000" font-family="sans-serif" font-size="13" lengthAdjust="spacing" textLength="129.8159" x="305" y="539.0669">d&#233;clenche [cite: 16]</text></g><!--link Member to UC15--><g class="link" data-entity-1="Member" data-entity-2="UC15" data-source-line="56" data-uid="lnk38" id="link_Member_UC15"><path d="M214.15,477.17 C231.77,515.28 263.04,573.69 304,613 C363.49,670.08 449.1702,698.7929 512.2702,713.6729" fill="none" id="Member-to-UC15" style="stroke:#181818;stroke-width:1;"/><polygon fill="#181818" points="518.11,715.05,510.2683,709.0911,513.2435,713.9024,508.4322,716.8775,518.11,715.05" style="stroke:#181818;stroke-width:1;"/></g><!--link UC14 to n8n--><g class="link" data-entity-1="UC14" data-entity-2="n8n" data-source-line="59" data-uid="lnk39" id="link_UC14_n8n"><path d="M704.04,647 C749.6,647 793.58,647 828.94,647" fill="none" id="UC14-to-n8n" style="stroke:#181818;stroke-width:1;stroke-dasharray:7,7;"/><polygon fill="#181818" points="834.94,647,825.94,643,829.94,647,825.94,651,834.94,647" style="stroke:#181818;stroke-width:1;"/><text fill="#000000" font-family="sans-serif" font-size="13" lengthAdjust="spacing" textLength="59.8076" x="745" y="643.0669">&#171;trigger&#187;</text></g><!--link n8n to GMaps--><g class="link" data-entity-1="n8n" data-entity-2="GMaps" data-source-line="60" data-uid="lnk40" id="link_n8n_GMaps"><path d="M931.14,636.07 C970.26,627 1020.2051,615.4156 1061.9851,605.7256" fill="none" id="n8n-to-GMaps" style="stroke:#181818;stroke-width:1;stroke-dasharray:7,7;"/><polygon fill="#181818" points="1067.83,604.37,1058.159,602.5068,1062.9593,605.4997,1059.9664,610.3,1067.83,604.37" style="stroke:#181818;stroke-width:1;"/><text fill="#000000" font-family="sans-serif" font-size="13" lengthAdjust="spacing" textLength="66.4727" x="966.5" y="609.0669">fetch data</text></g><!--link n8n to GSheets--><g class="link" data-entity-1="n8n" data-entity-2="GSheets" data-source-line="61" data-uid="lnk41" id="link_n8n_GSheets"><path d="M931.14,657.74 C972.59,667.18 1026.9097,679.5482 1069.2997,689.1982" fill="none" id="n8n-to-GSheets" style="stroke:#181818;stroke-width:1;stroke-dasharray:7,7;"/><polygon fill="#181818" points="1075.15,690.53,1067.2624,684.6321,1070.2747,689.4202,1065.4866,692.4325,1075.15,690.53" style="stroke:#181818;stroke-width:1;"/><text fill="#000000" font-family="sans-serif" font-size="13" lengthAdjust="spacing" textLength="75.7529" x="962" y="661.0669">export data</text></g><!--SRC=[TLJBRjim4BphAnQ-93auYFoE41Wmt3Jj8K0Hm-wXw86HLZORYXH8oatGzeFy7VwnBlL8GhO-6F1gPdV9cUKAp2rO1PflTnOohZ6rNCd8F75PCiqAA5dwnBQuiYy2mS5CRWL6qHdq-trOf5Pf0ndcN686NCAggG13XqVCuT3RSCCjLhe7pC1TXSPsoDfomGrp82mgkqDfUSwFXvfvZyKZweugPnA-AlsK2_MpXkb3XzqfHQU2UrOQM7pvtFHnKK1OxH2jQU3clxj9quTElqFDhO5Sgw8v9fnpcOegGmDC2DYxUr2voY2apA2vY1hQpMyIeprkzAeIz6xtTA5Lgbb9zJzLZptu5KK0ZNYRjjgQgYrTDJXVB-F-UZcvgCK3ryUr8PcMSG9B9KqbB5KIn3qUziU3n88QD1SYZfyoIE01KxgJ-q4btwUq6GC_OvZ0HowiFjrYw2UC4jWeth2puy4oBZhco6UE4rYTSMbIJKFMKiO-PK8KqbL9IGAYRacJDy6w0KbfNZ8dMw3TbBIBn_yHRqhYwUFXb0fJdprBu5vbD8Qd-3EVVqtdhifIy-9KmdNWvLK2Yn-gSbQowXbojbUQlxfu5R1ZvwFbpXKtY04xC3qUl1-Kubz-O7ayzFZqSakjSYuwUc1uJ8v_E1vIWRAUAXfouyQRossN4HWVZsjRQJf2P-Dn5FtfDia32kOMXzbnUiFEGGAw5y8bPR5wiPZsnVNxythYtqS3BnfwqSYBnbuqyPR0MoiuDoMcD0ZfHTJ2JSBK3sT-UEs7vASVnq4y2E9X48yWgULhD8TlAUtI1EB9zu0tTjUuVQRpIoPWzM8i5hvqTR7BoxbRdLJqviRIuj-YdiyZzyKXzTOaB4URxY1Zbhr1pSOa49zBfMsD_WK0]--></g></svg>