<svg xmlns="http://www.w3.org/2000/svg" xmlns:xlink="http://www.w3.org/1999/xlink" contentStyleType="text/css" data-diagram-type="SEQUENCE" height="692px" preserveAspectRatio="none" style="width:1307px;height:692px;background:#FFFFFF;" version="1.1" viewBox="0 0 1307 692" width="1307px" zoomAndPan="magnify"><title>Sequence Diagram: Triggering Scraping Workflow (UC14)</title><defs/><g><text fill="#000000" font-family="sans-serif" font-size="14" font-weight="bold" lengthAdjust="spacing" textLength="454.2822" x="427.5847" y="27.9951">Sequence Diagram: Triggering Scraping Workflow (UC14)</text><g><title>Frontend</title><rect fill="#FFFFFF" height="451.6641" style="stroke:#181818;stroke-width:1;" width="10" x="373.0537" y="149.7266"/></g><g><title>Backend API</title><rect fill="#FFFFFF" height="422.5313" style="stroke:#181818;stroke-width:1;" width="10" x="591.8286" y="178.8594"/></g><g><title>n8n Workflow</title><rect fill="#FFFFFF" height="145.6641" style="stroke:#181818;stroke-width:1;" width="10" x="832.9092" y="309.3906"/></g><g><title>Google Maps API</title><rect fill="#FFFFFF" height="29.1328" style="stroke:#181818;stroke-width:1;" width="10" x="1094.2344" y="338.5234"/></g><g><title>Google Sheets</title><rect fill="#FFFFFF" height="29.1328" style="stroke:#181818;stroke-width:1;" width="10" x="1227.6572" y="396.7891"/></g><rect fill="none" height="323.2656" style="stroke:#000000;stroke-width:1.5;" width="1290.4517" x="10" y="271.125"/><g><title>Utilisateur Authentifi.</title><rect fill="#000000" fill-opacity="0.00000" height="492.7969" width="8" x="95.7847" y="118.5938"/><line style="stroke:#181818;stroke-width:0.5;stroke-dasharray:5,5;" x1="99" x2="99" y1="118.5938" y2="611.3906"/></g><g><title>Frontend</title><rect fill="#000000" fill-opacity="0.00000" height="492.7969" width="8" x="374.0537" y="118.5938"/><line style="stroke:#181818;stroke-width:0.5;stroke-dasharray:5,5;" x1="377.499" x2="377.499" y1="118.5938" y2="611.3906"/></g><g><title>Backend API</title><rect fill="#000000" fill-opacity="0.00000" height="492.7969" width="8" x="592.8286" y="118.5938"/><line style="stroke:#181818;stroke-width:0.5;stroke-dasharray:5,5;" x1="596.3486" x2="596.3486" y1="118.5938" y2="611.3906"/></g><g><title>n8n Workflow</title><rect fill="#000000" fill-opacity="0.00000" height="492.7969" width="8" x="833.9092" y="118.5938"/><line style="stroke:#181818;stroke-width:0.5;stroke-dasharray:5,5;" x1="837.8047" x2="837.8047" y1="118.5938" y2="611.3906"/></g><g><title>Google Maps API</title><rect fill="#000000" fill-opacity="0.00000" height="492.7969" width="8" x="1095.2344" y="118.5938"/><line style="stroke:#181818;stroke-width:0.5;stroke-dasharray:5,5;" x1="1098.606" x2="1098.606" y1="118.5938" y2="611.3906"/></g><g><title>Google Sheets</title><rect fill="#000000" fill-opacity="0.00000" height="492.7969" width="8" x="1228.6572" y="118.5938"/><line style="stroke:#181818;stroke-width:0.5;stroke-dasharray:5,5;" x1="1231.8628" x2="1231.8628" y1="118.5938" y2="611.3906"/></g><g class="participant participant-head" data-participant="User"><text fill="#000000" font-family="sans-serif" font-size="14" lengthAdjust="spacing" textLength="153.5693" x="20" y="115.292">Utilisateur Authentifi&#233;</text><ellipse cx="99.7847" cy="50.7969" fill="#E2E2F0" rx="8" ry="8" style="stroke:#181818;stroke-width:0.5;"/><path d="M99.7847,58.7969 L99.7847,85.7969 M86.7847,66.7969 L112.7847,66.7969 M99.7847,85.7969 L86.7847,100.7969 M99.7847,85.7969 L112.7847,100.7969" fill="none" style="stroke:#181818;stroke-width:0.5;"/></g><g class="participant participant-tail" data-participant="User"><text fill="#000000" font-family="sans-serif" font-size="14" lengthAdjust="spacing" textLength="153.5693" x="20" y="623.3857">Utilisateur Authentifi&#233;</text><ellipse cx="99.7847" cy="635.1875" fill="#E2E2F0" rx="8" ry="8" style="stroke:#181818;stroke-width:0.5;"/><path d="M99.7847,643.1875 L99.7847,670.1875 M86.7847,651.1875 L112.7847,651.1875 M99.7847,670.1875 L86.7847,685.1875 M99.7847,670.1875 L112.7847,685.1875" fill="none" style="stroke:#181818;stroke-width:0.5;"/></g><g class="participant participant-head" data-participant="Front"><rect fill="#E2E2F0" height="30.2969" rx="2.5" ry="2.5" style="stroke:#181818;stroke-width:0.5;" width="77.1094" x="339.499" y="87.2969"/><text fill="#000000" font-family="sans-serif" font-size="14" lengthAdjust="spacing" textLength="63.1094" x="346.499" y="107.292">Frontend</text></g><g class="participant participant-tail" data-participant="Front"><rect fill="#E2E2F0" height="30.2969" rx="2.5" ry="2.5" style="stroke:#181818;stroke-width:0.5;" width="77.1094" x="339.499" y="610.3906"/><text fill="#000000" font-family="sans-serif" font-size="14" lengthAdjust="spacing" textLength="63.1094" x="346.499" y="630.3857">Frontend</text></g><g class="participant participant-head" data-participant="API"><rect fill="#E2E2F0" height="30.2969" rx="2.5" ry="2.5" style="stroke:#181818;stroke-width:0.5;" width="100.96" x="546.3486" y="87.2969"/><text fill="#000000" font-family="sans-serif" font-size="14" lengthAdjust="spacing" textLength="86.96" x="553.3486" y="107.292">Backend API</text></g><g class="participant participant-tail" data-participant="API"><rect fill="#E2E2F0" height="30.2969" rx="2.5" ry="2.5" style="stroke:#181818;stroke-width:0.5;" width="100.96" x="546.3486" y="610.3906"/><text fill="#000000" font-family="sans-serif" font-size="14" lengthAdjust="spacing" textLength="86.96" x="553.3486" y="630.3857">Backend API</text></g><g class="participant participant-head" data-participant="n8n"><rect fill="#E2E2F0" height="30.2969" rx="2.5" ry="2.5" style="stroke:#181818;stroke-width:0.5;" width="110.209" x="782.8047" y="87.2969"/><text fill="#000000" font-family="sans-serif" font-size="14" lengthAdjust="spacing" textLength="96.209" x="789.8047" y="107.292">n8n Workflow</text></g><g class="participant participant-tail" data-participant="n8n"><rect fill="#E2E2F0" height="30.2969" rx="2.5" ry="2.5" style="stroke:#181818;stroke-width:0.5;" width="110.209" x="782.8047" y="610.3906"/><text fill="#000000" font-family="sans-serif" font-size="14" lengthAdjust="spacing" textLength="96.209" x="789.8047" y="630.3857">n8n Workflow</text></g><g class="participant participant-head" data-participant="GMaps"><rect fill="#E2E2F0" height="30.2969" rx="2.5" ry="2.5" style="stroke:#181818;stroke-width:0.5;" width="131.2568" x="1033.606" y="87.2969"/><text fill="#000000" font-family="sans-serif" font-size="14" lengthAdjust="spacing" textLength="117.2568" x="1040.606" y="107.292">Google Maps API</text></g><g class="participant participant-tail" data-participant="GMaps"><rect fill="#E2E2F0" height="30.2969" rx="2.5" ry="2.5" style="stroke:#181818;stroke-width:0.5;" width="131.2568" x="1033.606" y="610.3906"/><text fill="#000000" font-family="sans-serif" font-size="14" lengthAdjust="spacing" textLength="117.2568" x="1040.606" y="630.3857">Google Maps API</text></g><g class="participant participant-head" data-participant="GSheets"><rect fill="#E2E2F0" height="30.2969" rx="2.5" ry="2.5" style="stroke:#181818;stroke-width:0.5;" width="115.5889" x="1174.8628" y="87.2969"/><text fill="#000000" font-family="sans-serif" font-size="14" lengthAdjust="spacing" textLength="101.5889" x="1181.8628" y="107.292">Google Sheets</text></g><g class="participant participant-tail" data-participant="GSheets"><rect fill="#E2E2F0" height="30.2969" rx="2.5" ry="2.5" style="stroke:#181818;stroke-width:0.5;" width="115.5889" x="1174.8628" y="610.3906"/><text fill="#000000" font-family="sans-serif" font-size="14" lengthAdjust="spacing" textLength="101.5889" x="1181.8628" y="630.3857">Google Sheets</text></g><g><title>Frontend</title><rect fill="#FFFFFF" height="451.6641" style="stroke:#181818;stroke-width:1;" width="10" x="373.0537" y="149.7266"/></g><g><title>Backend API</title><rect fill="#FFFFFF" height="422.5313" style="stroke:#181818;stroke-width:1;" width="10" x="591.8286" y="178.8594"/></g><g><title>n8n Workflow</title><rect fill="#FFFFFF" height="145.6641" style="stroke:#181818;stroke-width:1;" width="10" x="832.9092" y="309.3906"/></g><g><title>Google Maps API</title><rect fill="#FFFFFF" height="29.1328" style="stroke:#181818;stroke-width:1;" width="10" x="1094.2344" y="338.5234"/></g><g><title>Google Sheets</title><rect fill="#FFFFFF" height="29.1328" style="stroke:#181818;stroke-width:1;" width="10" x="1227.6572" y="396.7891"/></g><g class="message" data-participant-1="User" data-participant-2="Front"><polygon fill="#181818" points="361.0537,145.7266,371.0537,149.7266,361.0537,153.7266,365.0537,149.7266" style="stroke:#181818;stroke-width:1;"/><line style="stroke:#181818;stroke-width:1;" x1="99.7847" x2="367.0537" y1="149.7266" y2="149.7266"/><text fill="#000000" font-family="sans-serif" font-size="13" font-weight="bold" lengthAdjust="spacing" textLength="9.0454" x="106.7847" y="144.6606">1</text><text fill="#000000" font-family="sans-serif" font-size="13" lengthAdjust="spacing" textLength="241.2236" x="119.8301" y="144.6606">Clique "D&#233;clencher Scraping" (UC14)</text></g><g class="message" data-participant-1="Front" data-participant-2="API"><polygon fill="#181818" points="579.8286,174.8594,589.8286,178.8594,579.8286,182.8594,583.8286,178.8594" style="stroke:#181818;stroke-width:1;"/><line style="stroke:#181818;stroke-width:1;" x1="383.0537" x2="585.8286" y1="178.8594" y2="178.8594"/><text fill="#000000" font-family="sans-serif" font-size="13" font-weight="bold" lengthAdjust="spacing" textLength="9.0454" x="390.0537" y="173.7935">2</text><text fill="#000000" font-family="sans-serif" font-size="13" lengthAdjust="spacing" textLength="170.8535" x="403.0991" y="173.7935">POST /api/scraping/trigger</text></g><path d="M388,191.8594 L388,216.8594 L653,216.8594 L653,201.8594 L643,191.8594 L388,191.8594" fill="#FEFFDD" style="stroke:#181818;stroke-width:0.5;"/><path d="M643,191.8594 L643,201.8594 L653,201.8594 L643,191.8594" fill="#FEFFDD" style="stroke:#181818;stroke-width:0.5;"/><text fill="#000000" font-family="sans-serif" font-size="13" lengthAdjust="spacing" textLength="244.5562" x="394" y="208.9263">Header: Authorization (Bearer Token)</text><g class="message" data-participant-1="API" data-participant-2="API"><line style="stroke:#181818;stroke-width:1;" x1="601.8286" x2="643.8286" y1="243.125" y2="243.125"/><line style="stroke:#181818;stroke-width:1;" x1="643.8286" x2="643.8286" y1="243.125" y2="256.125"/><line style="stroke:#181818;stroke-width:1;" x1="602.8286" x2="643.8286" y1="256.125" y2="256.125"/><polygon fill="#181818" points="612.8286,252.125,602.8286,256.125,612.8286,260.125,608.8286,256.125" style="stroke:#181818;stroke-width:1;"/><text fill="#000000" font-family="sans-serif" font-size="13" font-weight="bold" lengthAdjust="spacing" textLength="9.0454" x="608.8286" y="238.0591">3</text><text fill="#000000" font-family="sans-serif" font-size="13" lengthAdjust="spacing" textLength="194.0352" x="621.874" y="238.0591">V&#233;rifier Authentification (JWT)</text></g><path d="M10,271.125 L74.4429,271.125 L74.4429,278.2578 L64.4429,288.2578 L10,288.2578 L10,271.125" fill="#EEEEEE" style="stroke:#000000;stroke-width:1.5;"/><rect fill="none" height="323.2656" style="stroke:#000000;stroke-width:1.5;" width="1290.4517" x="10" y="271.125"/><text fill="#000000" font-family="sans-serif" font-size="13" font-weight="bold" lengthAdjust="spacing" textLength="19.4429" x="25" y="284.1919">alt</text><text fill="#000000" font-family="sans-serif" font-size="11" font-weight="bold" lengthAdjust="spacing" textLength="79.8252" x="89.4429" y="283.3354">[Authentifi&#233;]</text><g class="message" data-participant-1="API" data-participant-2="n8n"><polygon fill="#181818" points="820.9092,305.3906,830.9092,309.3906,820.9092,313.3906,824.9092,309.3906" style="stroke:#181818;stroke-width:1;"/><line style="stroke:#181818;stroke-width:1;" x1="601.8286" x2="826.9092" y1="309.3906" y2="309.3906"/><text fill="#000000" font-family="sans-serif" font-size="13" font-weight="bold" lengthAdjust="spacing" textLength="9.0454" x="608.8286" y="304.3247">4</text><text fill="#000000" font-family="sans-serif" font-size="13" lengthAdjust="spacing" textLength="111.6553" x="621.874" y="304.3247">Trigger Webhook</text></g><g class="message" data-participant-1="n8n" data-participant-2="GMaps"><polygon fill="#181818" points="1082.2344,334.5234,1092.2344,338.5234,1082.2344,342.5234,1086.2344,338.5234" style="stroke:#181818;stroke-width:1;"/><line style="stroke:#181818;stroke-width:1;" x1="842.9092" x2="1088.2344" y1="338.5234" y2="338.5234"/><text fill="#000000" font-family="sans-serif" font-size="13" font-weight="bold" lengthAdjust="spacing" textLength="9.0454" x="849.9092" y="333.4575">5</text><text fill="#000000" font-family="sans-serif" font-size="13" lengthAdjust="spacing" textLength="219.2798" x="862.9546" y="333.4575">Scraping Request (Search Places)</text></g><g class="message" data-participant-1="GMaps" data-participant-2="n8n"><polygon fill="#181818" points="853.9092,363.6563,843.9092,367.6563,853.9092,371.6563,849.9092,367.6563" style="stroke:#181818;stroke-width:1;"/><line style="stroke:#181818;stroke-width:1;stroke-dasharray:2,2;" x1="847.9092" x2="1098.2344" y1="367.6563" y2="367.6563"/><text fill="#000000" font-family="sans-serif" font-size="13" font-weight="bold" lengthAdjust="spacing" textLength="9.0454" x="859.9092" y="362.5903">6</text><text fill="#000000" font-family="sans-serif" font-size="13" lengthAdjust="spacing" textLength="124.6235" x="872.9546" y="362.5903">Return Venue Data</text></g><g class="message" data-participant-1="n8n" data-participant-2="GSheets"><polygon fill="#181818" points="1215.6572,392.7891,1225.6572,396.7891,1215.6572,400.7891,1219.6572,396.7891" style="stroke:#181818;stroke-width:1;"/><line style="stroke:#181818;stroke-width:1;" x1="842.9092" x2="1221.6572" y1="396.7891" y2="396.7891"/><text fill="#000000" font-family="sans-serif" font-size="13" font-weight="bold" lengthAdjust="spacing" textLength="9.0454" x="849.9092" y="391.7231">7</text><text fill="#000000" font-family="sans-serif" font-size="13" lengthAdjust="spacing" textLength="145.2407" x="862.9546" y="391.7231">Append Rows (Export)</text></g><g class="message" data-participant-1="GSheets" data-participant-2="n8n"><polygon fill="#181818" points="853.9092,421.9219,843.9092,425.9219,853.9092,429.9219,849.9092,425.9219" style="stroke:#181818;stroke-width:1;"/><line style="stroke:#181818;stroke-width:1;stroke-dasharray:2,2;" x1="847.9092" x2="1231.6572" y1="425.9219" y2="425.9219"/><text fill="#000000" font-family="sans-serif" font-size="13" font-weight="bold" lengthAdjust="spacing" textLength="9.0454" x="859.9092" y="420.856">8</text><text fill="#000000" font-family="sans-serif" font-size="13" lengthAdjust="spacing" textLength="140.7974" x="872.9546" y="420.856">Success Confirmation</text></g><g class="message" data-participant-1="n8n" data-participant-2="API"><polygon fill="#181818" points="612.8286,451.0547,602.8286,455.0547,612.8286,459.0547,608.8286,455.0547" style="stroke:#181818;stroke-width:1;"/><line style="stroke:#181818;stroke-width:1;stroke-dasharray:2,2;" x1="606.8286" x2="836.9092" y1="455.0547" y2="455.0547"/><text fill="#000000" font-family="sans-serif" font-size="13" font-weight="bold" lengthAdjust="spacing" textLength="9.0454" x="618.8286" y="449.9888">9</text><text fill="#000000" font-family="sans-serif" font-size="13" lengthAdjust="spacing" textLength="127.2388" x="631.874" y="449.9888">Workflow Complete</text></g><g class="message" data-participant-1="API" data-participant-2="Front"><polygon fill="#181818" points="394.0537,480.1875,384.0537,484.1875,394.0537,488.1875,390.0537,484.1875" style="stroke:#181818;stroke-width:1;"/><line style="stroke:#181818;stroke-width:1;stroke-dasharray:2,2;" x1="388.0537" x2="590.8286" y1="484.1875" y2="484.1875"/><text fill="#000000" font-family="sans-serif" font-size="13" font-weight="bold" lengthAdjust="spacing" textLength="18.0908" x="400.0537" y="479.1216">10</text><text fill="#000000" font-family="sans-serif" font-size="13" lengthAdjust="spacing" textLength="162.6841" x="422.1445" y="479.1216">200 OK { success: true }</text></g><g class="message" data-participant-1="Front" data-participant-2="User"><polygon fill="#181818" points="110.7847,509.3203,100.7847,513.3203,110.7847,517.3203,106.7847,513.3203" style="stroke:#181818;stroke-width:1;"/><line style="stroke:#181818;stroke-width:1;stroke-dasharray:2,2;" x1="104.7847" x2="372.0537" y1="513.3203" y2="513.3203"/><text fill="#000000" font-family="sans-serif" font-size="13" font-weight="bold" lengthAdjust="spacing" textLength="18.0908" x="116.7847" y="508.2544">11</text><text fill="#000000" font-family="sans-serif" font-size="13" lengthAdjust="spacing" textLength="205.6768" x="138.8755" y="508.2544">Notification "Scraping Termin&#233;"</text></g><line style="stroke:#000000;stroke-width:1;stroke-dasharray:2,2;" x1="10" x2="1300.4517" y1="522.3203" y2="522.3203"/><text fill="#000000" font-family="sans-serif" font-size="11" font-weight="bold" lengthAdjust="spacing" textLength="108.249" x="15" y="532.5308">[Non Authentifi&#233;]</text><g class="message" data-participant-1="API" data-participant-2="Front"><polygon fill="#181818" points="394.0537,553.2578,384.0537,557.2578,394.0537,561.2578,390.0537,557.2578" style="stroke:#181818;stroke-width:1;"/><line style="stroke:#181818;stroke-width:1;stroke-dasharray:2,2;" x1="388.0537" x2="590.8286" y1="557.2578" y2="557.2578"/><text fill="#000000" font-family="sans-serif" font-size="13" font-weight="bold" lengthAdjust="spacing" textLength="18.0908" x="400.0537" y="552.1919">12</text><text fill="#000000" font-family="sans-serif" font-size="13" lengthAdjust="spacing" textLength="116.2256" x="422.1445" y="552.1919">401 Unauthorized</text></g><g class="message" data-participant-1="Front" data-participant-2="User"><polygon fill="#181818" points="110.7847,582.3906,100.7847,586.3906,110.7847,590.3906,106.7847,586.3906" style="stroke:#181818;stroke-width:1;"/><line style="stroke:#181818;stroke-width:1;stroke-dasharray:2,2;" x1="104.7847" x2="372.0537" y1="586.3906" y2="586.3906"/><text fill="#000000" font-family="sans-serif" font-size="13" font-weight="bold" lengthAdjust="spacing" textLength="18.0908" x="116.7847" y="581.3247">13</text><text fill="#000000" font-family="sans-serif" font-size="13" lengthAdjust="spacing" textLength="145.6597" x="138.8755" y="581.3247">Redirection vers Login</text></g><!--SRC=[TLDDSzem4BthL-pu18SCf9D3XqDd2BJfTnWCuQoOnTPW95TQ9vrs-eFu7Vonh6HNs2drmPQqx-q-lLsJeX8XnHyrwWnXhcHkvM42Awlo7AtIEQIPbPLVR8pTxqhp38FrxFfcA6HDHjU7HxH2o8oCXMHDgbHE4jOMfZKLg4djrEcOW7ImTeoif2MLgKfgWkI3DPfGRqCuRFhnMvdjEGpJnQS0uMyVeD_gA2iW-A2Fk3Ccvnj-avMBQUxyxY8iBH39DQ1cBOIN3LVl6dqmWLcfs2r8vgTZLh9h1OV_UfH4Rp9IJ-n3UolHa3aBQ-0SY_jq1IEcZ5pB757Z-9dfBwiDBpXG49XTLF0HvHRj93XihFebIHaDWrkKbhMi37is5C9NYWKVJaVBdS1kMxAMztcpOhWigTSo0VoqERpDSIPWWu-5CVi0Y6gzyVuWl3oUQS5d9iO9MlevSmI3bALc1InAcQ4RzZCrtV573Vyg2bWYrLR30shsVov91jGMBr1xCffESe9fLVbnMffd1uFtFojZwNNnjkkXVCix2qZhZFKwc1czK_OG_Fj7GoV3MKLiHFo9PkPGbKZucjypClZVcRqtup7SVu7Vu1eb4o3BNlm9u7R661v6TWBVJQVDIUp22kr1QVuf1POE6QN_q_XEuPlnDQorR0SEjvSBBd6hB6QXtXDQ1rzDhhHWpuNeND5FTcSRqhm0]--></g></svg>